name ./resultDataOpenSim/trcMotMarkerGrf/sub09/grf-15-07.mot
datacolumns 19
datarows 17
range 0.93600000 1.00000000
endheader

                time	     ground_force_vx	     ground_force_vy	     ground_force_vz	     ground_force_px	     ground_force_py	     ground_force_pz	   l_ground_force_vx	   l_ground_force_vy	   l_ground_force_vz	   l_ground_force_px	   l_ground_force_py	   l_ground_force_pz	     ground_torque_x	     ground_torque_y	     ground_torque_z	   l_ground_torque_x	   l_ground_torque_y	   l_ground_torque_z	
          0.93600000	          0.00000000	          0.00000000	          0.00000000	          0.00000000	          0.00000000	          0.00000000	         33.76382616	        451.98621653	          2.99474307	          0.15483600	         -0.10000000	          0.03140858	          0.00000000	          0.00000000	          0.00000000	          0.00000000	         -0.77862137	          0.00000000	
          0.94000000	          0.00000000	          0.00000000	          0.00000000	          0.00000000	          0.00000000	          0.00000000	         37.30527473	        454.67188245	          2.90042244	          0.15586838	         -0.10000000	          0.03225306	          0.00000000	          0.00000000	          0.00000000	          0.00000000	         -0.97676929	          0.00000000	
          0.94400000	          0.00000000	          0.00000000	          0.00000000	          0.00000000	          0.00000000	          0.00000000	         40.72250806	        458.12953274	          2.59532847	          0.15699326	         -0.10000000	          0.03314718	          0.00000000	          0.00000000	          0.00000000	          0.00000000	         -1.19875662	          0.00000000	
          0.94800000	          0.00000000	          0.00000000	          0.00000000	          0.00000000	          0.00000000	          0.00000000	         44.02526397	        462.31601370	          2.10780672	          0.15815046	         -0.10000000	          0.03407724	          0.00000000	          0.00000000	          0.00000000	          0.00000000	         -1.44289827	          0.00000000	
          0.95200000	          0.00000000	          0.00000000	          0.00000000	          0.00000000	          0.00000000	          0.00000000	         47.24310963	        467.17446264	          1.47698361	          0.15926534	         -0.10000000	          0.03501366	          0.00000000	          0.00000000	          0.00000000	          0.00000000	         -1.70463094	          0.00000000	
          0.95600000	          0.00000000	          0.00000000	          0.00000000	          0.00000000	          0.00000000	          0.00000000	         50.40535221	        472.59535730	          0.70203784	          0.16026154	         -0.10000000	          0.03591647	          0.00000000	          0.00000000	          0.00000000	          0.00000000	         -1.97774785	          0.00000000	
          0.96000000	          0.00000000	          0.00000000	          0.00000000	          0.00000000	          0.00000000	          0.00000000	         53.53903115	        478.41924915	         -0.25186383	          0.16107285	         -0.10000000	          0.03675108	          0.00000000	          0.00000000	          0.00000000	          0.00000000	         -2.25544263	          0.00000000	
          0.96400000	          0.00000000	          0.00000000	          0.00000000	          0.00000000	          0.00000000	          0.00000000	         56.67367715	        484.48334335	         -1.39989073	          0.16167177	         -0.10000000	          0.03749922	          0.00000000	          0.00000000	          0.00000000	          0.00000000	         -2.53088999	          0.00000000	
          0.96800000	          0.00000000	          0.00000000	          0.00000000	          0.00000000	          0.00000000	          0.00000000	         59.84106218	        490.65288545	         -2.69267376	          0.16209584	         -0.10000000	          0.03816354	          0.00000000	          0.00000000	          0.00000000	          0.00000000	         -2.79753630	          0.00000000	
          0.97200000	          0.00000000	          0.00000000	          0.00000000	          0.00000000	          0.00000000	          0.00000000	         63.06330050	        496.82115783	         -4.02797372	          0.16244871	         -0.10000000	          0.03877253	          0.00000000	          0.00000000	          0.00000000	          0.00000000	         -3.04936215	          0.00000000	
          0.97600000	          0.00000000	          0.00000000	          0.00000000	          0.00000000	          0.00000000	          0.00000000	         66.34363294	        502.92299085	         -5.30381880	          0.16285780	         -0.10000000	          0.03937340	          0.00000000	          0.00000000	          0.00000000	          0.00000000	         -3.28118292	          0.00000000	
          0.98000000	          0.00000000	          0.00000000	          0.00000000	          0.00000000	          0.00000000	          0.00000000	         69.67998068	        508.95554317	         -6.46010139	          0.16341301	         -0.10000000	          0.04001771	          0.00000000	          0.00000000	          0.00000000	          0.00000000	         -3.48891145	          0.00000000	
          0.98400000	          0.00000000	          0.00000000	          0.00000000	          0.00000000	          0.00000000	          0.00000000	         73.08147194	        514.95903767	         -7.48371584	          0.16415230	         -0.10000000	          0.04074268	          0.00000000	          0.00000000	          0.00000000	          0.00000000	         -3.66975912	          0.00000000	
          0.98800000	          0.00000000	          0.00000000	          0.00000000	          0.00000000	          0.00000000	          0.00000000	         76.55927455	        520.95602867	         -8.39078394	          0.16506472	         -0.10000000	          0.04155272	          0.00000000	          0.00000000	          0.00000000	          0.00000000	         -3.82242538	          0.00000000	
          0.99200000	          0.00000000	          0.00000000	          0.00000000	          0.00000000	          0.00000000	          0.00000000	         80.10555504	        526.88653363	         -9.20504168	          0.16611026	         -0.10000000	          0.04242834	          0.00000000	          0.00000000	          0.00000000	          0.00000000	         -3.94728364	          0.00000000	
          0.99600000	          0.00000000	          0.00000000	          0.00000000	          0.00000000	          0.00000000	          0.00000000	         83.68914208	        532.58766389	         -9.94129379	          0.16723515	         -0.10000000	          0.04333400	          0.00000000	          0.00000000	          0.00000000	          0.00000000	         -4.04649998	          0.00000000	
          1.00000000	          0.00000000	          0.00000000	          0.00000000	          0.00000000	          0.00000000	          0.00000000	         87.28478760	        537.83604956	        -10.60127168	          0.16837146	         -0.10000000	          0.04423302	          0.00000000	          0.00000000	          0.00000000	          0.00000000	         -4.12400109	          0.00000000	
